<?xml version="1.0" encoding="utf-8"?>
<!-- Generator: Adobe Illustrator 24.0.0, SVG Export Plug-In . SVG Version: 6.00 Build 0)  -->
<svg version="1.1" id="Ebene_1" xmlns="http://www.w3.org/2000/svg" xmlns:xlink="http://www.w3.org/1999/xlink" x="0px" y="0px"
	 viewBox="0 0 255.3 71.5" style="enable-background:new 0 0 255.3 71.5;" xml:space="preserve">
<style type="text/css">
	.st0{fill-rule:evenodd;clip-rule:evenodd;fill:#1A1919;}
	.st1{fill-rule:evenodd;clip-rule:evenodd;fill:#FFF101;}
	.st2{fill-rule:evenodd;clip-rule:evenodd;fill:#FFFFFF;}
</style>
<title>Logo / 02 Corporate Brand / Horizontal / Black</title>
<desc>Created with Sketch.</desc>
<g id="Logo-_x2F_-02-Corporate-Brand-_x2F_-Horizontal-_x2F_-Black">
	<g id="Group-2" transform="translate(51.000000, 22.435916)">
		<g id="Group" transform="translate(0.000000, 1.564084)">
			<g id="Group-3">
				<g id="Clip-2">
				</g>
				<polyline id="Fill-1" class="st0" points="-36.6,-13.2 13.4,-13.2 13.4,36.8 -36.5,36.8 -36.6,-13.2 				"/>
			</g>
			<polyline id="Fill-4" class="st1" points="-35.2,35.4 -35.2,-11.7 12,-11.7 11.9,35.4 -35.2,35.4 			"/>
			<path id="Fill-5" class="st0" d="M-11.7,17.8l15,15l5.9-5.9l-15-15L-2.9,9V3.2l2.1-2.1V6l2,2l7.3-7.3l2,2c0-1.3-0.4-5.6-3.9-9
				c-3.8-4-7.7-1.7-9-0.4l-7.1,7.1l1.8,1.8l-4,3.8l-3.9-3.9l1.8-1.8l-7.1-7.1c-1.3-1.3-5.3-3.6-9.2,0.2c-3.5,3.4-3.8,7.7-3.8,9
				l1.9-2l7.3,7.3l2-2V0.9l2.1,2.1v5.8l2.9,2.9l-14.9,14.9l5.9,5.9L-11.7,17.8"/>
		</g>
		<path id="Fill-6" class="st2" d="M28.7-7v5.3h0.5c2.5,0,3.8-0.9,3.8-2.6C33-6.2,31.7-7,29.2-7H28.7z M34.1,1.2l6.6,8.6h-6.9
			l-5.2-8.1v8.1h-5.5v-21.1h8.2c2.2,0,3.9,0.5,5.2,1.6c1.4,1.1,2.1,2.8,2.1,4.9c0,1.5-0.4,2.8-1.2,3.9C36.7,0.2,35.6,0.9,34.1,1.2
			L34.1,1.2z"/>
		<path id="Fill-7" class="st2" d="M49.5-0.6c-1,0-1.8,0.3-2.4,0.9c-0.6,0.6-0.9,1.4-0.9,2.3s0.3,1.7,0.9,2.3
			c0.6,0.6,1.4,0.9,2.4,0.9s1.8-0.3,2.4-0.9c0.6-0.6,0.9-1.4,0.9-2.3s-0.3-1.7-0.9-2.3C51.3-0.2,50.5-0.6,49.5-0.6z M57.7-4.5V9.9
			h-5.1V8.3c-0.9,1.4-2.3,2.1-4.4,2.1c-2.1,0-3.8-0.8-5.2-2.3s-2-3.3-2-5.4s0.7-3.9,2-5.4S46.1-5,48.2-5c1.9,0,3.4,0.6,4.4,1.9v-1.4
			H57.7L57.7-4.5z"/>
		<path id="Fill-8" class="st2" d="M60.9,9.9H66V-4.5h-5.1V9.9z M63.5-12.9c0.8,0,1.5,0.3,2,0.8c0.6,0.6,0.8,1.2,0.8,2
			s-0.3,1.5-0.8,2c-0.6,0.6-1.2,0.8-2,0.8c-0.8,0-1.5-0.3-2-0.8c-0.6-0.6-0.8-1.2-0.8-2s0.3-1.5,0.8-2C62-12.6,62.7-12.9,63.5-12.9
			L63.5-12.9z"/>
		<path id="Fill-9" class="st2" d="M74.8-0.3V9.9h-5.1V-0.3h-1.8v-4.2h1.8v-1.8c0-1.2,0.1-2.1,0.2-2.7c0.2-0.9,0.6-1.7,1.3-2.4
			c1.3-1.5,3-2.3,5-2.3c0.8,0,1.5,0.2,2.2,0.5v4.4c-0.7-0.3-1.3-0.5-1.8-0.5c-1.2,0-1.8,0.8-1.8,2.4v2.3h3.6v4.2L74.8-0.3"/>
		<path id="Fill-10" class="st2" d="M85.5-0.3V9.9h-5.1V-0.3h-1.8v-4.2h1.8v-1.8c0-1.2,0.1-2.1,0.2-2.7c0.2-0.9,0.6-1.7,1.3-2.4
			c1.3-1.5,3-2.3,5-2.3c0.8,0,1.5,0.2,2.2,0.5v4.4c-0.7-0.3-1.3-0.5-1.8-0.5c-1.2,0-1.8,0.8-1.8,2.4v2.3h3.6v4.2L85.5-0.3"/>
		<path id="Fill-11" class="st2" d="M94.8,0.6h5.9c-0.1-0.7-0.5-1.2-1-1.6s-1.2-0.6-1.9-0.6C96.1-1.7,95.1-0.9,94.8,0.6z M105.4,3
			v0.5H94.7c0,2.1,1.1,3.2,3.2,3.2c1.1,0,1.9-0.4,2.4-1.3h4.9c-0.4,1.6-1.3,2.8-2.7,3.7c-1.3,0.8-2.8,1.2-4.6,1.2
			c-2.5,0-4.4-0.7-5.9-2c-1.6-1.4-2.4-3.3-2.4-5.7s0.7-4.2,2.2-5.6c1.5-1.3,3.4-2,5.7-2c2.5,0,4.4,0.7,5.8,2.1
			C104.7-1.4,105.4,0.5,105.4,3L105.4,3z"/>
		<path id="Fill-12" class="st2" d="M107.6,9.9h5.1V-4.5h-5.1V9.9z M110.1-12.9c0.8,0,1.5,0.3,2,0.8c0.6,0.6,0.8,1.2,0.8,2
			s-0.3,1.5-0.8,2c-0.6,0.6-1.2,0.8-2,0.8s-1.5-0.3-2-0.8c-0.6-0.6-0.8-1.2-0.8-2s0.3-1.5,0.8-2C108.7-12.6,109.4-12.9,110.1-12.9
			L110.1-12.9z"/>
		<path id="Fill-13" class="st2" d="M127.1-4.1l-1.7,3.2c-0.9-0.5-1.8-0.7-2.7-0.7c-0.4,0-0.7,0.1-1,0.2c-0.4,0.2-0.6,0.4-0.6,0.8
			s0.3,0.7,0.9,1c0.1,0,0.6,0.1,1.4,0.3c2.8,0.6,4.2,2,4.2,4.3c0,1.8-0.7,3.1-2.1,4.1c-1.2,0.8-2.8,1.3-4.6,1.3
			c-2.1,0-4-0.5-5.8-1.7l1.8-3.6c1.4,1,2.7,1.5,4,1.5c0.4,0,0.7-0.1,1-0.3c0.4-0.2,0.6-0.5,0.6-0.8c0-0.6-0.5-1-1.7-1.2
			c-1.6-0.4-2.6-0.7-3.1-1c-1.1-0.7-1.7-1.7-1.7-3.2c0-1.7,0.7-2.9,2-3.9c1.2-0.8,2.6-1.2,4.3-1.2C124.2-5,125.8-4.7,127.1-4.1"/>
		<path id="Fill-14" class="st2" d="M134.2,0.6h5.9c-0.1-0.7-0.5-1.2-1-1.6s-1.2-0.6-1.9-0.6C135.6-1.7,134.5-0.9,134.2,0.6z
			 M144.9,3v0.5h-10.7c0,2.1,1.1,3.2,3.2,3.2c1.1,0,1.9-0.4,2.4-1.3h4.9c-0.4,1.6-1.3,2.8-2.7,3.7c-1.3,0.8-2.8,1.2-4.6,1.2
			c-2.5,0-4.4-0.7-5.9-2c-1.6-1.4-2.4-3.3-2.4-5.7s0.7-4.2,2.2-5.6s3.4-2.1,5.8-2.1c2.5,0,4.4,0.7,5.8,2.1
			C144.2-1.4,144.9,0.5,144.9,3L144.9,3z"/>
		<path id="Fill-15" class="st2" d="M152.1-4.5v1.8c1-1.5,2.6-2.3,4.6-2.3c3.6,0,5.4,2,5.4,6v8.9H157v-7c0-1.2-0.1-2-0.2-2.4
			c-0.3-0.9-1-1.4-2.1-1.4c-1.8,0-2.7,1.1-2.7,3.3v7.4h-5V-4.5H152.1"/>
		<path id="Fill-16" class="st2" d="M28.9,29.4v4.5h0.7c1.3,0,2.2-0.1,2.8-0.3c1-0.3,1.6-1,1.6-2c0-1.1-0.5-1.8-1.6-2.1
			c-0.5-0.1-1.4-0.2-2.9-0.2L28.9,29.4L28.9,29.4z M28.9,21.2v4.1h0.6c2,0,3-0.7,3-2c0-0.9-0.3-1.4-1-1.7c-0.4-0.2-1.2-0.3-2.2-0.3
			h-0.4V21.2z M31.9,38.1h-8.5V17h7.8c4.2,0,6.3,1.8,6.3,5.5c0,2.1-0.8,3.5-2.3,4.3v0.1c2.9,0.4,4.3,2.2,4.3,5.4
			c0,2.1-0.8,3.6-2.4,4.6C35.8,37.7,34.1,38.1,31.9,38.1L31.9,38.1z"/>
		<path id="Fill-17" class="st2" d="M49.7,27.7c-1,0-1.8,0.3-2.4,0.9c-0.6,0.6-0.9,1.4-0.9,2.3s0.3,1.7,0.9,2.3
			c0.6,0.6,1.4,0.9,2.4,0.9s1.8-0.3,2.4-0.9c0.6-0.6,0.9-1.4,0.9-2.3s-0.3-1.7-0.9-2.3C51.5,28,50.7,27.7,49.7,27.7z M57.9,23.8
			v14.4h-5.1v-1.6c-0.9,1.4-2.3,2.1-4.4,2.1c-2.1,0-3.8-0.8-5.2-2.3s-2.1-3.3-2.1-5.4s0.7-3.9,2-5.4c1.4-1.5,3.1-2.2,5.2-2.2
			c1.9,0,3.4,0.6,4.4,1.9v-1.4L57.9,23.8L57.9,23.8z"/>
		<path id="Fill-18" class="st2" d="M66.2,23.8v1.8c1.1-1.5,2.6-2.3,4.6-2.3c3.6,0,5.4,2,5.4,6v8.9h-5.1v-7c0-1.2-0.1-2-0.2-2.4
			c-0.3-0.9-1-1.4-2.1-1.4c-1.8,0-2.7,1.1-2.7,3.3v7.4H61V23.8H66.2"/>
		<polyline id="Fill-19" class="st2" points="84.5,14.9 84.5,29 89.8,23.8 96.8,23.8 89.6,30.4 97.3,38.1 90.1,38.1 84.5,32.3 
			84.5,38.1 79.4,38.1 79.4,14.9 84.5,14.9 		"/>
	</g>
</g>
</svg>
